<!-- Generator: Adobe Illustrator 21.1.0, SVG Export Plug-In  -->
<svg version="1.1" xmlns="http://www.w3.org/2000/svg" xmlns:xlink="http://www.w3.org/1999/xlink" xmlns:a="http://ns.adobe.com/AdobeSVGViewerExtensions/3.0/" x="0px" y="0px" width="229px" height="46.9px" viewBox="0 0 229 46.9" style="enable-background:new 0 0 229 46.9;" xml:space="preserve">
<style type="text/css">
	.st0{fill:#54585A;}
	.st1{fill:#97D700;}
	.st2{fill:#78BE20;}
</style>
<defs>
</defs>
<g>
	<g>
		<path class="st0" d="M70.5,23c2.5-1.3,3.8-3.2,3.8-5.8v-0.1c0-1.8-0.6-3.2-1.7-4.4c-1.5-1.5-3.7-2.2-6.6-2.2h-9.3v25.9h9.5    c2.8,0,5.1-0.6,6.7-1.9c1.7-1.2,2.5-3,2.5-5.2v-0.1C75.4,26.2,73.8,24.2,70.5,23z M60.9,14.3h4.7c1.4,0,2.5,0.3,3.2,0.9    c0.8,0.6,1.1,1.5,1.1,2.5v0.1c0,1.2-0.4,2.1-1.2,2.7c-0.8,0.6-2,0.9-3.4,0.9h-4.5V14.3z M71.1,28.9c0,1.2-0.4,2.1-1.3,2.7    c-0.9,0.6-2,1-3.5,1h-5.4v-7.4h5.2c1.6,0,2.8,0.3,3.7,1C70.7,26.8,71.1,27.7,71.1,28.9L71.1,28.9z"/>
		<polygon class="st0" points="144,27.8 132.6,10.5 128.6,10.5 128.6,36.4 132.8,36.4 132.8,18.6 144.5,36.4 148.2,36.4 148.2,10.5     144,10.5   "/>
		<path class="st0" d="M161.6,10.5h-7.9v25.9h7.9c3.7,0,6.7-1.2,8.9-3.6c2.3-2.4,3.4-5.5,3.4-9.3v-0.3c0-3.8-1.1-6.9-3.4-9.2    C168.2,11.6,165.3,10.5,161.6,10.5z M169.4,23.6c0,2.8-0.7,4.9-2.1,6.5c-1.4,1.6-3.3,2.4-5.7,2.4h-3.6V14.4h3.6    c2.4,0,4.3,0.8,5.7,2.4c1.4,1.6,2.1,3.8,2.1,6.6V23.6z"/>
		<rect x="178.3" y="10.5" class="st0" width="4.3" height="25.9"/>
		<polygon class="st0" points="188.2,36.4 192.5,36.4 192.5,25.4 203.1,25.4 203.1,21.5 192.5,21.5 192.5,14.4 204.5,14.4     204.5,10.5 188.2,10.5   "/>
		<polygon class="st0" points="224.2,10.5 218.2,21.7 212.2,10.5 207.3,10.5 216,26.1 216,36.4 220.3,36.4 220.3,26 229,10.5   "/>
		<path class="st0" d="M111.9,10.5l-9.5,25.9h4.3l2.5-7h9.5l2.5,7h4.5l-9.5-25.9H111.9z M110.5,25.6l3.4-9.6l3.4,9.6H110.5z"/>
		<path class="st0" d="M97.9,23.6c1-1.3,1.4-2.9,1.4-4.8v-0.1c0-2.4-0.7-4.3-2.1-5.7c-1.6-1.6-3.9-2.4-6.9-2.4h-9.4v25.9h4.3v-9.2h4    l5.5,9.2h5l-5.9-9.8C96.1,25.8,97.2,24.4,97.9,23.6z M85.2,14.4h4.7c1.6,0,2.9,0.4,3.8,1.1c0.9,0.8,1.3,1.9,1.3,3.3v0.1    c0,1.4-0.4,2.5-1.4,3.3c-0.9,0.8-2.2,1.2-3.8,1.2h-4.6V14.4z"/>
	</g>
	<g>
		<polygon class="st0" points="0,6.6 20.5,46.9 20.5,15   "/>
		<g>
			<polygon class="st1" points="0,6.6 20.5,0 40.8,6.6 20.5,15    "/>
		</g>
		<polyline class="st2" points="20.5,15 40.8,6.6 20.5,46.9   "/>
	</g>
</g>
</svg>